<svg xmlns="http://www.w3.org/2000/svg" height="20" viewBox="0 -960 960 960" width="20"><path d="M263.788-96Q234-96 213-117.212q-21-21.213-21-51Q192-198 213.212-219q21.213-21 51-21Q294-240 315-218.788q21 21.213 21 51Q336-138 314.788-117q-21.213 21-51 21Zm432 0Q666-96 645-117.212q-21-21.213-21-51Q624-198 645.212-219q21.213-21 51-21Q726-240 747-218.788q21 21.213 21 51Q768-138 746.788-117q-21.213 21-51 21ZM222-768h570q14 0 20.5 11t1.5 23L702.627-476.145Q694-456 676.5-444 659-432 637-432H317l-42 72h493v72H276q-43 0-63.5-36.153Q192-360.305 213-396l52-90-131-306H48v-72h133l41 96Z"/></svg>